<svg width="84" height="84" viewBox="0 0 84 84" fill="none" xmlns="http://www.w3.org/2000/svg">
<path d="M39.0109 0H52.7449V63.581C45.6994 64.918 40.5264 65.4535 34.9089 65.4535C18.1404 65.4535 9.40088 57.8725 9.40088 43.3335C9.40088 29.3265 18.6759 20.2335 33.0364 20.2335C35.2659 20.2335 36.9599 20.4085 39.0109 20.944V0ZM39.0109 32.0005C37.5179 31.4962 35.9489 31.2546 34.3734 31.2865C27.4154 31.2865 23.4044 35.567 23.4044 43.064C23.4044 50.379 27.2404 54.39 34.2859 54.39C35.8014 54.39 37.0509 54.3025 39.0109 54.033V32.0005ZM74.5989 21.21V53.053C74.5989 64.022 73.7974 69.286 71.3894 73.8325C69.1599 78.204 66.2164 80.969 60.1509 84L47.3969 77.9345C53.4624 75.082 56.4059 72.5795 58.2784 68.747C60.2419 64.8235 60.8649 60.2735 60.8649 48.3245V21.2065L74.5989 21.21ZM60.8649 0.0735H74.5989V14.1645H60.8649V0.0735Z" fill="#CCCCCC"/>
</svg>
