<svg width="84" height="84" viewBox="0 0 84 84" fill="none" xmlns="http://www.w3.org/2000/svg">
<g clip-path="url(#clip0_1702_112)">
<path d="M84 30.6951H75.362V57.1726H70.3745V30.6951H61.7575V26.3551H84V30.6951ZM60.018 57.1726H43.1445V26.3551H59.3495V30.6951H48.132V39.4241H58.4675V43.7431H48.132V52.8571H60.018V57.1726ZM36.54 57.1726H31.087L16.73 34.5206C16.3709 33.9568 16.0684 33.3589 15.827 32.7356H15.701C15.813 33.3971 15.869 34.8076 15.869 36.9706V57.1726H11.0495V26.3551H16.856L30.7335 48.4751C31.318 49.3886 31.696 50.0221 31.864 50.3651H31.948C31.808 49.5496 31.738 48.1636 31.738 46.2176V26.3516H36.54V57.1726ZM6.0795 54.7471C6.0795 55.1284 6.00081 55.5059 5.84791 55.8582C5.69502 56.2104 5.47093 56.5304 5.18846 56.7999C4.90598 57.0694 4.57066 57.283 4.20167 57.4287C3.83268 57.5743 3.43725 57.649 3.038 57.6486C2.63874 57.6486 2.24339 57.5734 1.87456 57.4274C1.50574 57.2813 1.17067 57.0673 0.888515 56.7975C0.606363 56.5277 0.382662 56.2074 0.230204 55.855C0.0777454 55.5026 -0.000479411 55.1249 2.21049e-06 54.7436C0.000973372 53.9746 0.321476 53.2375 0.891106 52.6942C1.46074 52.1508 2.23291 51.8456 3.038 51.8456C3.43725 51.8451 3.83268 51.9198 4.20167 52.0655C4.57066 52.2111 4.90598 52.4247 5.18846 52.6942C5.47093 52.9637 5.69502 53.2837 5.84791 53.6359C6.00081 53.9882 6.0795 54.3658 6.0795 54.7471Z" fill="#CCCCCC"/>
</g>
<defs>
<clipPath id="clip0_1702_112">
<rect width="84" height="84" fill="white"/>
</clipPath>
</defs>
</svg>
