<svg width="84" height="84" viewBox="0 0 84 84" fill="none" xmlns="http://www.w3.org/2000/svg">
<path d="M38.7842 0C35.8092 0 33.397 2.41185 33.397 5.3872C33.397 8.36255 35.8088 10.7748 38.7842 10.7748C40.8667 10.7748 42.6692 9.59175 43.5659 7.86275C51.3387 12.299 57.0304 27.0175 57.0304 44.1308C57.0304 51.381 56.0185 58.3268 54.1429 64.3206C54.0987 64.4616 54.0827 64.61 54.0958 64.7572C54.1089 64.9044 54.1509 65.0476 54.2194 65.1786C54.2879 65.3096 54.3815 65.4258 54.4949 65.5206C54.6083 65.6154 54.7393 65.6869 54.8803 65.7311C55.1655 65.8201 55.4744 65.7924 55.7391 65.6538C56.0037 65.5153 56.2026 65.2773 56.2919 64.9922C58.2372 58.7752 59.2816 51.6043 59.2816 44.1308C59.2816 25.9564 53.0806 10.2298 44.1595 5.62135C44.163 5.5433 44.1717 5.4663 44.1717 5.3872C44.1717 2.4122 41.7599 0 38.7842 0ZM38.7842 2.2512C39.6159 2.2512 40.4136 2.5816 41.0017 3.16971C41.5898 3.75783 41.9202 4.55548 41.9202 5.3872C41.9202 6.21892 41.5898 7.01657 41.0017 7.60469C40.4136 8.1928 39.6159 8.5232 38.7842 8.5232C37.9525 8.5232 37.1548 8.1928 36.5667 7.60469C35.9786 7.01657 35.6482 6.21892 35.6482 5.3872C35.6482 4.55548 35.9786 3.75783 36.5667 3.16971C37.1548 2.5816 37.9525 2.2512 38.7842 2.2512ZM19.5832 17.3194C12.3487 17.3453 6.81765 19.6455 4.22345 24.1392C1.6422 28.6101 2.38 34.5376 6.013 40.8737C6.165 41.1258 6.40965 41.3083 6.69457 41.3822C6.97948 41.456 7.282 41.4154 7.53734 41.269C7.79267 41.1226 7.98051 40.882 8.06063 40.5987C8.14075 40.3155 8.10679 40.0122 7.966 39.7537C4.69385 34.0459 4.05685 28.931 6.17365 25.2648C9.04715 20.2878 16.7891 18.4215 26.936 20.2699C27.0814 20.2964 27.2307 20.294 27.3752 20.2628C27.5197 20.2316 27.6567 20.1723 27.7783 20.0882C27.8999 20.0041 28.0037 19.8968 28.0838 19.7726C28.164 19.6484 28.2189 19.5095 28.2453 19.3641C28.2718 19.2187 28.2694 19.0694 28.2383 18.9249C28.2071 18.7804 28.1477 18.6434 28.0636 18.5218C27.9795 18.4002 27.8723 18.2964 27.748 18.2163C27.6238 18.1361 27.485 18.0812 27.3395 18.0548C24.5955 17.555 21.9943 17.3107 19.5832 17.3194ZM58.2659 17.381C57.9674 17.3771 57.6795 17.492 57.4657 17.7003C57.2518 17.9086 57.1295 18.1934 57.1256 18.4919C57.1217 18.7904 57.2365 19.0783 57.4449 19.2921C57.6532 19.506 57.938 19.6283 58.2365 19.6322C64.6544 19.7159 69.2811 21.7168 71.3622 25.3218C74.2294 30.2883 71.9915 37.9033 65.3485 45.7513C65.1557 45.9794 65.0613 46.2746 65.0861 46.5722C65.1108 46.8698 65.2526 47.1454 65.4804 47.3386C65.5932 47.4341 65.7238 47.5064 65.8645 47.5515C66.0053 47.5966 66.1536 47.6134 66.3009 47.6012C66.4482 47.5889 66.5916 47.5478 66.723 47.4801C66.8544 47.4124 66.9712 47.3194 67.0667 47.2066C74.2539 38.7156 76.7645 30.1752 73.3124 24.1962C70.7725 19.7967 65.4024 17.4738 58.2659 17.381ZM48.8215 18.4044C48.7454 18.4051 48.6695 18.4136 48.595 18.4296C42.0962 19.8223 35.1785 22.5439 28.5351 26.3795C12.5405 35.6139 1.96175 49.1113 2.7748 59.1805C1.1207 60.1003 0 61.8628 0 63.8897C0 66.8647 2.4122 69.2769 5.38755 69.2769C8.36255 69.2769 10.7747 66.865 10.7747 63.8897C10.7747 60.9144 8.3629 58.5021 5.38755 58.5021C5.25455 58.5021 5.12365 58.5127 4.99275 58.5221C4.64205 49.5632 14.5946 37.0279 29.6607 28.3293C36.1053 24.6089 42.8036 21.9723 49.0665 20.6304C49.3382 20.5711 49.5784 20.4133 49.7408 20.1874C49.9031 19.9616 49.9761 19.6836 49.9456 19.4072C49.9152 19.1307 49.7835 18.8753 49.5759 18.6901C49.3684 18.505 49.0996 18.4032 48.8215 18.4044ZM38.746 40.2318C38.482 40.235 38.219 40.2649 37.961 40.321C35.8568 40.7764 34.5205 42.8498 34.9744 44.9543C35.4301 47.0585 37.5035 48.3956 39.6077 47.9409C41.7119 47.4852 43.0489 45.4118 42.5943 43.3076C42.1956 41.4666 40.5587 40.2122 38.746 40.2318ZM12.6073 46.6935C12.4595 46.6864 12.3118 46.7085 12.1725 46.7587C12.0333 46.8088 11.9054 46.886 11.796 46.9858C11.6867 47.0852 11.598 47.2052 11.5351 47.3389C11.4721 47.4726 11.4361 47.6174 11.4292 47.7651C11.4222 47.9127 11.4444 48.0603 11.4945 48.1993C11.5446 48.3384 11.6216 48.4662 11.7211 48.5755C16.1598 53.4531 21.9261 58.029 28.5022 61.8254C43.9533 70.7465 60.3718 73.3225 68.965 68.2626C69.8783 68.9225 70.9764 69.2776 72.1031 69.2773C75.0785 69.2773 77.4903 66.8654 77.4903 63.89C77.4903 60.9147 75.0788 58.5025 72.1031 58.5025C69.1281 58.5025 66.7159 60.9147 66.7159 63.89C66.7159 64.856 66.9739 65.7604 67.4194 66.5444C59.5626 70.7934 44.2109 68.2951 29.6278 59.8755C23.248 56.1921 17.6648 51.7622 13.3864 47.0606C13.2872 46.9512 13.1672 46.8624 13.0335 46.7993C12.8998 46.7363 12.755 46.7004 12.6073 46.6935ZM5.38755 60.7537C5.79937 60.7537 6.20717 60.8348 6.58765 60.9924C6.96812 61.15 7.31383 61.381 7.60504 61.6722C7.89624 61.9634 8.12724 62.3091 8.28484 62.6896C8.44243 63.0701 8.52355 63.4779 8.52355 63.8897C8.52355 64.3015 8.44243 64.7093 8.28484 65.0898C8.12724 65.4703 7.89624 65.816 7.60504 66.1072C7.31383 66.3984 6.96812 66.6294 6.58765 66.787C6.20717 66.9446 5.79937 67.0257 5.38755 67.0257C4.97572 67.0257 4.56793 66.9446 4.18745 66.787C3.80698 66.6294 3.46127 66.3984 3.17006 66.1072C2.87886 65.816 2.64786 65.4703 2.49026 65.0898C2.33266 64.7093 2.25155 64.3015 2.25155 63.8897C2.25155 63.4779 2.33266 63.0701 2.49026 62.6896C2.64786 62.3091 2.87886 61.9634 3.17006 61.6722C3.46127 61.381 3.80698 61.15 4.18745 60.9924C4.56793 60.8348 4.97572 60.7537 5.38755 60.7537ZM72.1031 60.7537C72.515 60.7537 72.9228 60.8348 73.3032 60.9924C73.6837 61.15 74.0294 61.381 74.3206 61.6722C74.6118 61.9634 74.8428 62.3091 75.0004 62.6896C75.158 63.0701 75.2391 63.4779 75.2391 63.8897C75.2391 64.3015 75.158 64.7093 75.0004 65.0898C74.8428 65.4703 74.6118 65.816 74.3206 66.1072C74.0294 66.3984 73.6837 66.6294 73.3032 66.787C72.9228 66.9446 72.515 67.0257 72.1031 67.0257C71.3486 67.0264 70.6195 66.7536 70.0508 66.2578C70.042 66.2438 70.0371 66.2288 70.0276 66.2148C69.9395 66.0859 69.8255 65.9769 69.6927 65.8949C69.3118 65.4368 69.0692 64.8798 68.9934 64.2889C68.9176 63.698 69.0116 63.0978 69.2645 62.5584C69.5174 62.0191 69.9187 61.5629 70.4214 61.2433C70.9241 60.9237 71.5074 60.7538 72.1031 60.7537ZM23.0874 65.5417C22.9019 65.5312 22.7166 65.5669 22.5482 65.6455C22.3798 65.724 22.2335 65.8431 22.1223 65.992C22.0112 66.1409 21.9386 66.3151 21.9112 66.4989C21.8837 66.6827 21.9022 66.8704 21.9649 67.0453C25.7229 77.539 31.8713 84 38.7842 84C43.8263 84 48.4914 80.5623 52.129 74.5115C52.2052 74.3848 52.2556 74.2444 52.2775 74.0982C52.2994 73.952 52.2923 73.8029 52.2565 73.6595C52.2208 73.516 52.1571 73.381 52.0692 73.2622C51.9812 73.1434 51.8707 73.0431 51.744 72.967C51.488 72.8133 51.1814 72.7675 50.8917 72.8397C50.602 72.9118 50.3527 73.0961 50.1987 73.352C46.9297 78.7899 42.9145 81.7485 38.7842 81.7485C33.0417 81.7485 27.5579 75.9857 24.0842 66.2858C24.0096 66.0775 23.8752 65.8959 23.6979 65.7635C23.5206 65.6312 23.3083 65.554 23.0874 65.5417Z" fill="#CCCCCC"/>
</svg>
