<svg width="84" height="84" viewBox="0 0 84 84" fill="none" xmlns="http://www.w3.org/2000/svg">
<g clip-path="url(#clip0_1701_91)">
<path d="M82.7471 19.0051C82.7796 19.1189 82.7961 19.2367 82.7961 19.3551V37.3766C82.7961 37.8491 82.5406 38.2866 82.1346 38.5176L67.0041 47.2326V64.5016C67.0036 64.7327 66.9426 64.9596 66.8272 65.1598C66.7117 65.36 66.5459 65.5265 66.3461 65.6426L34.7551 83.8216C34.6819 83.8617 34.6044 83.8934 34.5241 83.9161C34.4961 83.9231 34.4681 83.9441 34.4401 83.9511C34.2205 84.0141 33.9877 84.0141 33.7681 83.9511C33.7296 83.9441 33.6981 83.9231 33.6631 83.9091C33.5931 83.8811 33.5161 83.8601 33.4461 83.8216L1.8656 65.6426C1.6647 65.5274 1.49775 65.3613 1.3816 65.161C1.26545 64.9606 1.20423 64.7332 1.2041 64.5016V10.4091C1.2041 10.2936 1.2216 10.1781 1.2531 10.0661C1.2636 10.0241 1.2881 9.99611 1.3021 9.95411C1.32316 9.88429 1.35009 9.81638 1.3826 9.75111C1.3966 9.70561 1.4351 9.67411 1.4631 9.63561L1.5786 9.47811C1.6206 9.44311 1.6661 9.41511 1.7081 9.38361C1.7571 9.34161 1.8026 9.29961 1.8516 9.26461L17.6506 0.175109C17.8501 0.0599133 18.0765 -0.000732422 18.3069 -0.000732422C18.5372 -0.000732422 18.7636 0.0599133 18.9631 0.175109L34.7551 9.26461H34.7621C34.8146 9.29961 34.8566 9.33811 34.9021 9.38011L35.0351 9.47461C35.0806 9.52361 35.1051 9.57961 35.1506 9.63211C35.1786 9.67061 35.2206 9.70561 35.2381 9.74761C35.2731 9.81761 35.2976 9.88061 35.3221 9.95061C35.3326 9.98911 35.3571 10.0241 35.3676 10.0626C35.4026 10.1711 35.4166 10.2866 35.4166 10.4056V44.1876L48.5766 36.6136V19.3446C48.5766 19.2291 48.5906 19.1136 48.6221 19.0016C48.6326 18.9666 48.6571 18.9316 48.6676 18.8896C48.6911 18.819 48.7191 18.75 48.7516 18.6831C48.7761 18.6411 48.8146 18.6131 48.8391 18.5676C48.8811 18.5151 48.9126 18.4626 48.9546 18.4171C48.9966 18.3751 49.0421 18.3471 49.0841 18.3191C49.1331 18.2841 49.1751 18.2386 49.2276 18.2071H49.2311L65.0266 9.11411C65.2261 8.99891 65.4525 8.93827 65.6829 8.93827C65.9132 8.93827 66.1396 8.99891 66.3391 9.11411L82.1346 18.2071C82.1906 18.2421 82.2291 18.2806 82.2816 18.3156C82.3236 18.3506 82.3691 18.3786 82.4076 18.4136C82.4531 18.4626 82.4846 18.5186 82.5266 18.5676C82.5546 18.6096 82.5931 18.6411 82.6106 18.6831C82.6491 18.7531 82.6736 18.8231 82.6946 18.8931C82.7156 18.9281 82.7366 18.9666 82.7471 19.0051ZM80.1571 36.6171V21.6266L74.6341 24.8046L66.9971 29.2006V44.1911L80.1571 36.6171ZM64.3721 63.7421V48.7376L56.8576 53.0251L35.4166 65.2681V80.4056L64.3721 63.7421ZM3.8256 12.6841V63.7421L32.7811 80.4056V65.2681L17.6541 56.7106L17.6471 56.7001H17.6401C17.5911 56.6651 17.5526 56.6266 17.5001 56.5916C17.4616 56.5566 17.4161 56.5286 17.3776 56.4971L17.3741 56.4901C17.3286 56.4481 17.3006 56.4026 17.2656 56.3501C17.2306 56.3116 17.1921 56.2731 17.1676 56.2241H17.1606C17.1326 56.1751 17.1151 56.1156 17.0906 56.0596C17.0696 56.0036 17.0416 55.9651 17.0276 55.9091C17.0144 55.8432 17.005 55.7766 16.9996 55.7096C16.9926 55.6606 16.9786 55.6151 16.9786 55.5661V20.2616L9.3486 15.8621L3.8256 12.6841ZM18.3051 2.83511L5.1451 10.4091L18.3051 17.9831L31.4581 10.4091L18.3051 2.83511ZM25.1511 50.1026L32.7881 45.7066V12.6841L27.2581 15.8691L19.6211 20.2616V53.2841L25.1511 50.1026ZM65.6846 11.7776L52.5246 19.3481L65.6846 26.9186L78.8411 19.3446L65.6846 11.7776ZM64.3686 29.2006L56.7351 24.8046L51.2051 21.6301V36.6206L58.8421 41.0166L64.3721 44.1946L64.3686 29.2006ZM34.0936 62.9896L53.3926 51.9716L63.0386 46.4696L49.8891 38.8991L34.7586 47.6106L20.9651 55.5556L34.0936 62.9896Z" fill="#CCCCCC"/>
</g>
<defs>
<clipPath id="clip0_1701_91">
<rect width="84" height="84" fill="white"/>
</clipPath>
</defs>
</svg>
