<svg width="84" height="84" viewBox="0 0 84 84" fill="none" xmlns="http://www.w3.org/2000/svg">
<g clip-path="url(#clip0_1701_93)">
<mask id="mask0_1701_93" style="mask-type:luminance" maskUnits="userSpaceOnUse" x="0" y="0" width="84" height="84">
<path d="M84 0H0V84H84V0Z" fill="white"/>
</mask>
<g mask="url(#mask0_1701_93)">
<path d="M40.5031 0C39.886 0 39.4188 0.00455 39.2486 0.02345C39.0681 0.042 38.493 0.09695 37.9761 0.13825C26.0453 1.2138 14.8701 7.6503 7.79205 17.5431C3.8507 23.044 1.33 29.2831 0.378 35.8925C0.0413 38.199 0 38.8805 0 42.0084C0 45.1364 0.042 45.8178 0.378 48.125C2.66 63.896 13.8849 77.1467 29.1085 82.0557C31.8346 82.9346 34.7085 83.5338 37.9764 83.895C39.249 84.035 44.7503 84.035 46.0229 83.895C51.6639 83.271 56.4431 81.8755 61.1559 79.4699C61.8786 79.1003 62.0183 79.002 61.9199 78.9194C61.8541 78.8708 58.7745 74.7411 55.0799 69.7494L48.3634 60.6774L39.9469 48.2234C35.3161 41.3759 31.506 35.7774 31.4731 35.7774C31.4402 35.7682 31.4076 41.3028 31.3908 48.0588C31.3674 59.8895 31.3583 60.3656 31.2102 60.6449C30.9967 61.0474 30.8322 61.2112 30.4878 61.3918C30.2253 61.5227 29.995 61.5475 28.7553 61.5475H27.3343L26.957 61.3095C26.723 61.1629 26.5329 60.9559 26.4068 60.7103L26.2343 60.3407L26.2528 43.8802L26.2763 27.4113L26.5304 27.0911C26.662 26.9185 26.9413 26.6973 27.138 26.5905C27.4747 26.4261 27.6063 26.4096 29.0266 26.4096C30.702 26.4096 30.981 26.475 31.416 26.951C31.5396 27.083 36.0965 33.9465 41.5485 42.2139C47.0686 50.5818 52.5921 58.9475 58.1189 67.311L64.7696 77.3847L65.1056 77.1631C68.0869 75.2255 71.2393 72.4668 73.7355 69.5937C79.0482 63.4935 82.4726 56.0556 83.622 48.1246C83.9584 45.8178 83.9993 45.1357 83.9993 42.0084C83.9993 38.8805 83.9573 38.199 83.622 35.8918C81.3393 20.1208 70.1148 6.87015 54.8916 1.96105C52.2064 1.0906 49.349 0.49105 46.1468 0.12985C45.5553 0.06825 42.3539 0.0014 40.5031 0ZM54.7428 25.2595C55.9584 25.2595 56.1715 25.278 56.4428 25.424C56.8372 25.6207 57.1568 25.9987 57.2723 26.3925C57.3374 26.6059 57.3542 31.171 57.3374 41.4579L57.3139 56.2191L54.7113 52.2291L52.1 48.2391V37.5081C52.1 30.5711 52.1325 26.6711 52.1819 26.4824C52.3131 26.0229 52.6005 25.6613 52.9949 25.4481C53.3313 25.2752 53.4534 25.2595 54.7428 25.2595Z" fill="#CCCCCC"/>
</g>
</g>
<defs>
<clipPath id="clip0_1701_93">
<rect width="84" height="84" fill="white"/>
</clipPath>
</defs>
</svg>
