<svg width="84" height="84" viewBox="0 0 84 84" fill="none" xmlns="http://www.w3.org/2000/svg">
<g clip-path="url(#clip0_1701_99)">
<mask id="mask0_1701_99" style="mask-type:luminance" maskUnits="userSpaceOnUse" x="0" y="0" width="84" height="84">
<path d="M84 0H0V84H84V0Z" fill="white"/>
</mask>
<g mask="url(#mask0_1701_99)">
<path d="M25.5349 71.0739C25.4725 70.9636 25.4169 70.8496 25.3684 70.7326C25.0327 69.9559 24.9293 69.0987 25.0708 68.2645H5.21262L34.7245 16.3298L44.413 33.3613L47.2224 28.3902L38.7768 13.5116C38.372 12.7495 37.7825 12.101 37.0624 11.6255C36.3423 11.1501 35.5144 10.8627 34.6545 10.7898C33.7967 10.8291 32.967 11.1083 32.26 11.5956C31.5529 12.083 30.9968 12.759 30.6548 13.5467L0.757852 66.1115C0.310887 66.8537 0.0531744 67.6944 0.00738845 68.5596C-0.0383975 69.4248 0.129146 70.288 0.495278 71.0732C0.955169 71.7982 1.60874 72.38 2.38208 72.7529C3.15542 73.1257 4.01766 73.2748 4.87129 73.1831H29.9109C29.0572 73.2763 28.1945 73.1279 27.4209 72.7551C26.6473 72.3822 25.9938 71.7997 25.5349 71.0739Z" fill="#CCCCCC"/>
<path d="M83.106 66.1114L58.5391 22.8325C58.1362 22.0622 57.5457 21.4059 56.8222 20.9241C56.0987 20.4423 55.2654 20.1505 54.3994 20.0757C53.5421 20.1126 52.7125 20.3899 52.0052 20.8758C51.298 21.3618 50.7416 22.0368 50.3997 22.8238L47.2227 28.3901L50.0495 33.3612L54.4249 25.6157L78.73 68.2644H69.4878C69.6061 68.9694 69.5398 69.6931 69.2953 70.3648C69.2439 70.5132 69.1794 70.6567 69.1027 70.7937L69.024 70.9512C68.5217 71.6604 67.8526 72.2349 67.0756 72.624C66.2987 73.0131 65.4378 73.2049 64.5692 73.1824H79.0276C79.8964 73.2058 80.7575 73.0143 81.5346 72.6251C82.3117 72.2359 82.9807 71.661 83.4823 70.9512C83.8783 70.19 84.0529 69.333 83.9864 68.4775C83.9199 67.622 83.6149 66.8023 83.106 66.1114Z" fill="#C2C2C2"/>
<path d="M69.0237 70.9512L69.1025 70.7937C69.1792 70.6567 69.2437 70.5132 69.2951 70.3648C69.5396 69.6931 69.6059 68.9694 69.4876 68.2644C69.3514 67.504 69.0786 66.7745 68.6824 66.1114L50.0675 33.3612L47.2231 28.3901L44.3962 33.3612L25.7893 66.1122C25.4281 66.7833 25.1854 67.5116 25.0717 68.2652C24.922 69.0969 25.0162 69.9541 25.3431 70.7333C25.3915 70.8504 25.4471 70.9644 25.5096 71.0746C25.9696 71.7995 26.6232 72.3811 27.3966 72.7539C28.1699 73.1266 29.0322 73.2756 29.8857 73.1839H64.5428C65.4158 73.2095 66.2816 73.0191 67.0633 72.6296C67.845 72.2401 68.5184 71.6636 69.0237 70.9512ZM47.2224 38.3323L64.2365 68.2644H30.2173L47.2224 38.3323Z" fill="#818181"/>
</g>
</g>
<defs>
<clipPath id="clip0_1701_99">
<rect width="84" height="84" fill="white"/>
</clipPath>
</defs>
</svg>
