<svg width="84" height="84" viewBox="0 0 84 84" fill="none" xmlns="http://www.w3.org/2000/svg">
<path d="M49.805 42.0141C49.805 44.0891 48.981 46.0791 47.5141 47.5467C46.0472 49.0143 44.0575 49.8392 41.9825 49.8401C39.9069 49.8401 37.9163 49.0156 36.4487 47.5479C34.981 46.0803 34.1565 44.0897 34.1565 42.0141C34.1565 39.9391 34.9805 37.9491 36.4474 36.4815C37.9143 35.014 39.904 34.1891 41.979 34.1881C44.0546 34.1881 46.0452 35.0126 47.5128 36.4803C48.9805 37.948 49.805 39.9385 49.805 42.0141ZM59.073 4.59912C54.362 4.59912 48.1985 7.95912 41.965 13.7761C35.735 7.99062 29.568 4.66912 24.8605 4.66912C23.4255 4.66912 22.12 4.99462 20.9895 5.64212C16.177 8.41762 15.099 17.0661 17.584 27.9196C6.93 31.2096 0 36.4701 0 42.0141C0 47.5791 6.965 52.8536 17.6505 56.1191C15.1865 67.0146 16.2855 75.6771 21.1085 78.4491C22.2285 79.1036 23.5235 79.4116 24.9655 79.4116C29.673 79.4116 35.84 76.0516 42.0735 70.2276C48.3035 76.0166 54.4705 79.3381 59.178 79.3381C60.613 79.3381 61.9185 79.0231 63.049 78.3756C67.858 75.6036 68.9395 66.9551 66.4545 56.0981C77.07 52.8361 84 47.5651 84 42.0141C84 36.4491 77.035 31.1746 66.3495 27.9021C68.8135 17.0171 67.7145 8.34762 62.8915 5.57212C61.7785 4.92812 60.4835 4.60262 59.0695 4.59912H59.073ZM59.0555 8.41412V8.43512C59.843 8.43512 60.4765 8.58912 61.0085 8.87962C63.3395 10.2166 64.351 15.3021 63.5635 21.8436C63.3745 23.4536 63.0665 25.1511 62.6885 26.8836C59.3285 26.0576 55.6675 25.4241 51.814 25.0146C49.504 21.8471 47.1065 18.9701 44.6915 16.4501C50.2635 11.2701 55.496 8.42812 59.059 8.41762L59.0555 8.41412ZM24.8605 8.48412C28.4025 8.48412 33.6595 11.3121 39.2455 16.4641C36.8445 18.9841 34.4505 21.8436 32.1755 25.0111C28.301 25.4206 24.6365 26.0541 21.28 26.8941C20.888 25.1791 20.5975 23.5201 20.391 21.9241C19.586 15.3861 20.58 10.3041 22.89 8.94962C23.555 8.63462 24.29 8.50512 24.8605 8.48762V8.48412ZM41.9475 19.1591C43.54 20.7971 45.1325 22.6311 46.7075 24.6331C45.1675 24.5631 43.5925 24.5141 42 24.5141C40.39 24.5141 38.7975 24.5491 37.24 24.6331C38.78 22.6311 40.3725 20.7971 41.9475 19.1556V19.1591ZM42 28.3501C44.59 28.3501 47.1695 28.4691 49.707 28.6756C51.128 30.7126 52.514 32.8861 53.8475 35.1856C55.1495 37.4256 56.3325 39.7006 57.4105 41.9966C56.3325 44.2891 55.1495 46.5816 53.865 48.8216C52.535 51.1316 51.1595 53.3296 49.735 55.3666C47.187 55.5871 44.604 55.7096 42 55.7096C39.41 55.7096 36.8305 55.5871 34.293 55.3841C32.872 53.3471 31.486 51.1701 30.1525 48.8741C28.8505 46.6341 27.6675 44.3591 26.5895 42.0631C27.65 39.7636 28.8505 37.4676 30.135 35.2241C31.465 32.9141 32.8405 30.7231 34.265 28.6861C36.813 28.4621 39.396 28.3431 42 28.3431V28.3501ZM29.2775 29.2391C28.4375 30.5586 27.5975 31.9096 26.8135 33.2991C26.026 34.6641 25.291 36.0361 24.591 37.4081C23.6635 35.1121 22.876 32.8231 22.225 30.5936C24.465 30.0686 26.8275 29.6031 29.2775 29.2426V29.2391ZM54.6875 29.2391C57.12 29.5996 59.465 30.0441 61.7085 30.5936C61.0785 32.8056 60.291 35.0806 59.3985 37.3591C58.6985 35.9941 57.9635 34.6186 57.1585 33.2501C56.371 31.8781 55.531 30.5411 54.691 29.2391H54.6875ZM65.408 31.6016C67.102 32.1266 68.712 32.7111 70.2205 33.3446C76.2825 35.9346 80.2025 39.3226 80.2025 42.0106C80.185 44.6986 76.265 48.1006 70.203 50.6731C68.733 51.3031 67.123 51.8701 65.4605 52.3986C64.4805 49.0456 63.1995 45.5526 61.6105 41.9686C63.1855 38.4091 64.4455 34.9336 65.408 31.5946V31.6016ZM18.5255 31.6156C19.4985 34.9756 20.783 38.4651 22.3755 42.0456C20.8005 45.6051 19.5335 49.0806 18.5745 52.4196C16.8805 51.8946 15.2705 51.3066 13.7795 50.6696C7.7175 48.0901 3.7975 44.6986 3.7975 42.0106C3.7975 39.3226 7.7175 35.9136 13.7795 33.3446C15.2495 32.7146 16.8595 32.1476 18.5255 31.6156ZM59.3985 46.5956C60.326 48.8951 61.1135 51.1876 61.7645 53.4136C59.5245 53.9631 57.1585 54.4286 54.7085 54.7786C55.5485 53.4661 56.3885 52.1116 57.176 50.7256C57.9635 49.3606 58.6985 47.9676 59.402 46.5956H59.3985ZM24.591 46.6656C25.291 48.0376 26.026 49.4061 26.831 50.7781C27.636 52.1431 28.4585 53.4801 29.2985 54.7786C26.866 54.4216 24.521 53.9736 22.2775 53.4276C22.9075 51.2226 23.6985 48.9406 24.5875 46.6621L24.591 46.6656ZM62.72 57.1201C63.112 58.8456 63.42 60.5081 63.609 62.1006C64.414 68.6386 63.42 73.7206 61.11 75.0786C60.5955 75.3936 59.927 75.5266 59.1395 75.5266C55.5975 75.5266 50.3405 72.7021 44.7545 67.5466C47.1555 65.0266 49.5495 62.1706 51.8245 59.0066C55.699 58.5936 59.3635 57.9566 62.72 57.1166V57.1201ZM21.315 57.1551C24.675 57.9741 28.336 58.6076 32.1895 59.0171C34.4995 62.1846 36.897 65.0616 39.312 67.5781C33.7295 72.7686 28.49 75.6106 24.927 75.6106C24.157 75.5931 23.506 75.4356 22.9915 75.1486C20.6605 73.8186 19.649 68.7296 20.4365 62.1881C20.6255 60.5781 20.9335 58.8841 21.3115 57.1551H21.315ZM37.275 59.3951C38.815 59.4651 40.39 59.5141 41.9825 59.5141C43.5925 59.5141 45.185 59.4791 46.7425 59.3951C45.2025 61.3971 43.61 63.2276 42.035 64.8726C40.4425 63.2276 38.85 61.3971 37.275 59.3951Z" fill="#CCCCCC"/>
</svg>
